TITLE ""
FILE "1Q_t_0149-0158.mp3" MP3
  TRACK 01 AUDIO
    TITLE "1Q_t_0149-0158_01"
    INDEX 01 00:00:00
  TRACK 02 AUDIO
    TITLE "1Q_t_0149-0158_02"
    INDEX 01 00:01:08
  TRACK 03 AUDIO
    TITLE "1Q_t_0149-0158_03"
    INDEX 01 00:01:25
  TRACK 04 AUDIO
    TITLE "1Q_t_0149-0158_04"
    INDEX 01 00:03:22
  TRACK 05 AUDIO
    TITLE "1Q_t_0149-0158_05"
    INDEX 01 00:03:36
  TRACK 06 AUDIO
    TITLE "1Q_t_0149-0158_06"
    INDEX 01 00:09:21
  TRACK 07 AUDIO
    TITLE "1Q_t_0149-0158_07"
    INDEX 01 00:09:74
  TRACK 08 AUDIO
    TITLE "1Q_t_0149-0158_08"
    INDEX 01 00:11:16
  TRACK 09 AUDIO
    TITLE "1Q_t_0149-0158_09"
    INDEX 01 00:11:32
  TRACK 10 AUDIO
    TITLE "1Q_t_0149-0158_10"
    INDEX 01 00:12:68
  TRACK 11 AUDIO
    TITLE "1Q_t_0149-0158_11"
    INDEX 01 00:13:07
  TRACK 12 AUDIO
    TITLE "1Q_t_0149-0158_12"
    INDEX 01 00:18:02
  TRACK 13 AUDIO
    TITLE "1Q_t_0149-0158_13"
    INDEX 01 00:18:57
  TRACK 14 AUDIO
    TITLE "1Q_t_0149-0158_14"
    INDEX 01 00:19:64
  TRACK 15 AUDIO
    TITLE "1Q_t_0149-0158_15"
    INDEX 01 00:20:03
  TRACK 16 AUDIO
    TITLE "1Q_t_0149-0158_16"
    INDEX 01 00:22:00
  TRACK 17 AUDIO
    TITLE "1Q_t_0149-0158_17"
    INDEX 01 00:22:14
  TRACK 18 AUDIO
    TITLE "1Q_t_0149-0158_18"
    INDEX 01 00:27:37
  TRACK 19 AUDIO
    TITLE "1Q_t_0149-0158_19"
    INDEX 01 00:28:16
  TRACK 20 AUDIO
    TITLE "1Q_t_0149-0158_20"
    INDEX 01 00:29:28
  TRACK 21 AUDIO
    TITLE "1Q_t_0149-0158_21"
    INDEX 01 00:29:41
  TRACK 22 AUDIO
    TITLE "1Q_t_0149-0158_22"
    INDEX 01 00:33:69
  TRACK 23 AUDIO
    TITLE "1Q_t_0149-0158_23"
    INDEX 01 00:34:09
  TRACK 24 AUDIO
    TITLE "1Q_t_0149-0158_24"
    INDEX 01 00:39:12
  TRACK 25 AUDIO
    TITLE "1Q_t_0149-0158_25"
    INDEX 01 00:39:63
  TRACK 26 AUDIO
    TITLE "1Q_t_0149-0158_26"
    INDEX 01 00:41:15
  TRACK 27 AUDIO
    TITLE "1Q_t_0149-0158_27"
    INDEX 01 00:41:31
  TRACK 28 AUDIO
    TITLE "1Q_t_0149-0158_28"
    INDEX 01 00:42:42
  TRACK 29 AUDIO
    TITLE "1Q_t_0149-0158_29"
    INDEX 01 00:42:56
  TRACK 30 AUDIO
    TITLE "1Q_t_0149-0158_30"
    INDEX 01 00:48:11
  TRACK 31 AUDIO
    TITLE "1Q_t_0149-0158_31"
    INDEX 01 00:48:64
  TRACK 32 AUDIO
    TITLE "1Q_t_0149-0158_32"
    INDEX 01 00:50:04
  TRACK 33 AUDIO
    TITLE "1Q_t_0149-0158_33"
    INDEX 01 00:50:22
  TRACK 34 AUDIO
    TITLE "1Q_t_0149-0158_34"
    INDEX 01 00:51:23
  TRACK 35 AUDIO
    TITLE "1Q_t_0149-0158_35"
    INDEX 01 00:51:37
  TRACK 36 AUDIO
    TITLE "1Q_t_0149-0158_36"
    INDEX 01 00:58:14
  TRACK 37 AUDIO
    TITLE "1Q_t_0149-0158_37"
    INDEX 01 00:58:67
  TRACK 38 AUDIO
    TITLE "1Q_t_0149-0158_38"
    INDEX 01 01:00:05
  TRACK 39 AUDIO
    TITLE "1Q_t_0149-0158_39"
    INDEX 01 01:00:22
  TRACK 40 AUDIO
    TITLE "1Q_t_0149-0158_40"
    INDEX 01 01:02:23
  TRACK 41 AUDIO
    TITLE "1Q_t_0149-0158_41"
    INDEX 01 01:02:37
  TRACK 42 AUDIO
    TITLE "1Q_t_0149-0158_42"
    INDEX 01 01:08:34
  TRACK 43 AUDIO
    TITLE "1Q_t_0149-0158_43"
    INDEX 01 01:09:13
  TRACK 44 AUDIO
    TITLE "1Q_t_0149-0158_44"
    INDEX 01 01:10:31
  TRACK 45 AUDIO
    TITLE "1Q_t_0149-0158_45"
    INDEX 01 01:10:48
  TRACK 46 AUDIO
    TITLE "1Q_t_0149-0158_46"
    INDEX 01 01:11:65
  TRACK 47 AUDIO
    TITLE "1Q_t_0149-0158_47"
    INDEX 01 01:12:06
  TRACK 48 AUDIO
    TITLE "1Q_t_0149-0158_48"
    INDEX 01 01:19:31
  TRACK 49 AUDIO
    TITLE "1Q_t_0149-0158_49"
    INDEX 01 01:20:09
  TRACK 50 AUDIO
    TITLE "1Q_t_0149-0158_50"
    INDEX 01 01:21:40
  TRACK 51 AUDIO
    TITLE "1Q_t_0149-0158_51"
    INDEX 01 01:21:58
  TRACK 52 AUDIO
    TITLE "1Q_t_0149-0158_52"
    INDEX 01 01:24:05
  TRACK 53 AUDIO
    TITLE "1Q_t_0149-0158_53"
    INDEX 01 01:24:19
  TRACK 54 AUDIO
    TITLE "1Q_t_0149-0158_54"
    INDEX 01 01:31:13
  TRACK 55 AUDIO
    TITLE "1Q_t_0149-0158_55"
    INDEX 01 01:31:68
  TRACK 56 AUDIO
    TITLE "1Q_t_0149-0158_56"
    INDEX 01 01:33:16
  TRACK 57 AUDIO
    TITLE "1Q_t_0149-0158_57"
    INDEX 01 01:33:33
  TRACK 58 AUDIO
    TITLE "1Q_t_0149-0158_58"
    INDEX 01 01:38:29
  TRACK 59 AUDIO
    TITLE "1Q_t_0149-0158_59"
    INDEX 01 01:38:43
  TRACK 60 AUDIO
    TITLE "1Q_t_0149-0158_60"
    INDEX 01 01:45:11
